 <svg
                  width="23px"
                  height="23px"
                  viewBox="0 0 1024 1024"
                  data-aut-id="icon"
                  fill-rule="evenodd"
                >
                  <path d="M873.997 456.711H819.182C811.047 414.001 794.347 374.323 770.704 339.651L809.444 300.892V259.727L767.653 217.918H726.489L687.73 256.677C653.058 233.054 613.38 216.334 570.67 208.199V153.384L541.552 124.266H482.455L453.337 153.384V208.199C410.628 216.334 370.949 233.054 336.277 256.677L297.518 217.918H256.334L214.544 259.727V300.892L253.303 339.651C229.661 374.323 212.96 414.001 204.825 456.711H150.011L120.893 485.829V544.926L150.011 574.044H204.825C212.96 616.753 229.661 656.431 253.303 691.103L214.544 729.863V771.047L256.334 812.837H297.518L336.277 774.078C370.949 797.72 410.628 814.421 453.337 822.556V877.37L482.455 906.488H541.552L570.67 877.37V822.556C613.38 814.421 653.058 797.72 687.73 774.078L726.489 812.837H767.653L809.444 771.047V729.863L770.704 691.103C794.347 656.431 811.047 616.753 819.182 574.044H873.997L903.115 544.926V485.829L873.997 456.711ZM512.004 750.044C382.605 750.044 277.337 644.776 277.337 515.377C277.337 385.978 382.605 280.711 512.004 280.711C641.403 280.711 746.67 385.978 746.67 515.377C746.67 644.776 641.403 750.044 512.004 750.044ZM512.004 350.839C421.266 350.839 347.463 424.641 347.463 515.379C347.463 606.117 421.266 679.92 512.004 679.92C602.741 679.92 676.544 606.117 676.544 515.379C676.544 424.641 602.741 350.839 512.004 350.839ZM512.004 601.697C464.405 601.697 425.685 562.977 425.685 515.379C425.685 467.781 464.405 429.061 512.004 429.061C559.602 429.061 598.322 467.781 598.322 515.379C598.322 562.977 559.602 601.697 512.004 601.697Z"></path>
                </svg>